<?xml version="1.0" encoding="UTF-8"?>
<svg id="Calque_2" data-name="Calque 2" xmlns="http://www.w3.org/2000/svg" viewBox="0 0 145.13 332.07">
  <g id="Calque_1-2" data-name="Calque 1">
    <g id="freepik--oil-lamp-1--inject-140">
      <path d="m118.62,137.26l15.24-9.48c6.34-3.94,9.36-11.57,7.41-18.78l-18.77-69.93C121.22,17.96,103.73,1.5,82.6,1.5h-17.5c-21.15,0-38.63,16.47-39.91,37.58L6.42,109.01c-1.94,7.2,1.06,14.82,7.39,18.77l15.31,9.48" fill="none" stroke="#263238" stroke-linecap="round" stroke-linejoin="round" stroke-width="3"/>
      <rect x="52.2" y="152.19" width="41.15" height="12.38" fill="#263238" stroke="#263238" stroke-linecap="round" stroke-linejoin="round"/>
      <path d="m102.6,189.23c-.92-2.42-6.37-18.84-9.44-24.62h-40.12c-3.15,5.79-8.71,22.21-9.67,24.62-4.19,10.74-7.94,21.83-9.31,33.28-2.14,17.89,5.04,47.8,26.59,53.31h25.66v-.18c20.6-5.89,27.49-35.4,25.41-53.13-1.37-11.48-5.04-22.58-9.13-33.28Z" fill="none" stroke="#263238" stroke-linecap="round" stroke-linejoin="round"/>
      <path d="m51.25,306.87h-16.5c-18.9.02-34.23-15.29-34.25-34.19,0-1.12.05-2.24.16-3.36l11.68-127.23c.69-7.11,3.59-13.83,8.31-19.2l.99-1.13c6.5-7.44,15.9-11.7,25.78-11.69h3.17c4.46,0,8.08,3.62,8.08,8.08s-3.62,8.08-8.08,8.08h-3.17c-5.21,0-10.17,2.25-13.6,6.17l-.98,1.13c-2.49,2.83-4.03,6.38-4.39,10.14l-11.68,127.24c-.98,9.93,6.27,18.78,16.2,19.76.59.06,1.19.09,1.78.09h16.53c4.45,0,8.06,3.61,8.06,8.06s-3.61,8.06-8.06,8.06h-.02Z" fill="#c0bda5" stroke="#263238" stroke-linecap="round" stroke-linejoin="round"/>
      <path d="m47.14,303.2h-3.96c-10.06.05-19.74-3.84-26.96-10.84-7.01-6.81-10.52-16.45-9.56-26.18l12.09-120.93c.79-7.14,3.94-13.81,8.95-18.96l1.02-1.08c6.91-7.06,16.29-11.18,26.17-11.47.67-.02,1.23.5,1.25,1.16.02.67-.5,1.23-1.16,1.25-9.24.28-18,4.12-24.48,10.72l-1.02,1.07c-4.64,4.76-7.56,10.93-8.3,17.54l-12.16,120.91c-.89,9,2.37,17.92,8.86,24.22,6.77,6.57,15.86,10.22,25.29,10.16h3.96c.67,0,1.21.54,1.21,1.21s-.54,1.21-1.21,1.21h0Z" fill="#c0bda5" stroke="#263238" stroke-linecap="round" stroke-linejoin="round"/>
      <path d="m39.47,128.06c2.18-1.07,4.55-1.68,6.98-1.81v-16.11c-2.35.06-4.69.37-6.98.92v17.01Z" fill="#263238" stroke="#263238" stroke-linecap="round" stroke-linejoin="round"/>
      <path d="m91.76,273.57h24.86c1.79,0,3.56-.43,5.15-1.26h0c2.12-1.12,3.81-2.89,4.83-5.05l2.47-5.19" fill="none" stroke="#263238" stroke-linecap="round" stroke-linejoin="round" stroke-width="2"/>
      <path d="m93.88,306.87h16.53c18.89,0,34.22-15.31,34.22-34.2,0-1.12-.05-2.25-.16-3.36l-11.68-127.23c-.68-7.11-3.59-13.83-8.31-19.2l-.98-1.13c-6.51-7.43-15.9-11.7-25.78-11.69h-3.17c-4.46,0-8.08,3.62-8.08,8.08s3.62,8.08,8.08,8.08h3.17c5.21,0,10.17,2.25,13.61,6.17l.98,1.13c2.49,2.84,4.02,6.38,4.38,10.14l11.68,127.24c1,9.93-6.24,18.78-16.17,19.78-.59.06-1.19.09-1.79.09h-16.53c-4.45,0-8.06,3.61-8.06,8.06s3.61,8.06,8.06,8.06Z" fill="#c0bda5" stroke="#263238" stroke-linecap="round" stroke-linejoin="round"/>
      <path d="m97.14,303.2h3.96c10.07.06,19.76-3.83,26.99-10.84,7.01-6.81,10.53-16.45,9.56-26.18l-12.13-120.95c-.8-7.14-3.95-13.81-8.95-18.96l-1.02-1.08c-6.91-7.05-16.28-11.15-26.15-11.45-.67-.02-1.23.5-1.25,1.16-.02.67.5,1.23,1.16,1.25,9.24.28,18.01,4.12,24.49,10.72l1.02,1.07c4.64,4.76,7.55,10.93,8.29,17.54l12.13,120.92c.9,9-2.37,17.92-8.86,24.22-6.77,6.57-15.85,10.22-25.28,10.16h-3.96c-.67,0-1.21.54-1.21,1.21s.54,1.21,1.21,1.21h0Z" fill="#c0bda5" stroke="#263238" stroke-linecap="round" stroke-linejoin="round"/>
      <path d="m99.05,126.27c2.85.21,5.61,1.09,8.06,2.57v-17.46c-2.63-.75-5.33-1.17-8.06-1.27v16.16Z" fill="#263238" stroke="#263238" stroke-linecap="round" stroke-linejoin="round"/>
      <path d="m83.8,247.09c0,11.28-4.89,20.47-10.92,20.47s-10.92-9.16-10.92-20.47,4.89-20.47,10.92-20.47,10.92,9.16,10.92,20.47Z" fill="#c0bda5" stroke="#263238" stroke-linecap="round" stroke-linejoin="round"/>
      <path d="m78.38,257.26c0,5.69-2.47,10.3-5.5,10.3s-5.5-4.61-5.5-10.3,2.47-10.3,5.5-10.3,5.5,4.61,5.5,10.3Z" fill="#fff" stroke="#263238" stroke-linecap="round" stroke-linejoin="round"/>
      <line x1="107.61" y1="194.51" x2="43.26" y2="265.06" fill="none" stroke="#263238" stroke-linecap="round" stroke-linejoin="round" stroke-width="2"/>
      <line x1="39.38" y1="194.51" x2="103.74" y2="265.06" fill="none" stroke="#263238" stroke-linecap="round" stroke-linejoin="round" stroke-width="2"/>
      <rect x="53.78" y="273.57" width="37.98" height="14.5" fill="#263238" stroke="#263238" stroke-linecap="round" stroke-linejoin="round"/>
      <rect x="52.54" y="85.83" width="40.46" height="9.91" fill="#263238" stroke="#263238" stroke-linecap="round" stroke-linejoin="round"/>
      <path d="m100.37,84.4l-20.95-9.19h-14.86l-19.44,9.21c-.6.28-.85.99-.57,1.59.2.42.62.69,1.08.69h54.22c.66.03,1.21-.49,1.24-1.14.02-.49-.27-.95-.72-1.14Z" fill="#c0bda5" stroke="#263238" stroke-linecap="round" stroke-linejoin="round"/>
      <rect x="42.22" y="96.03" width="61.1" height="56.15" rx="3.13" ry="3.13" fill="#c0bda5" stroke="#263238" stroke-linecap="round" stroke-linejoin="round"/>
      <line x1="96.22" y1="121.46" x2="101" y2="121.46" fill="none" stroke="#263238" stroke-linecap="round" stroke-linejoin="round"/>
      <line x1="44.94" y1="121.46" x2="91.35" y2="121.46" fill="none" stroke="#263238" stroke-linecap="round" stroke-linejoin="round"/>
      <polygon points="109.56 152.88 36.39 152.88 39.71 147.64 106.24 147.64 109.56 152.88" fill="#c0bda5" stroke="#263238" stroke-linecap="round" stroke-linejoin="round"/>
      <rect x="42.99" y="83.58" width="59.45" height="3.64" fill="#c0bda5" stroke="#263238" stroke-linecap="round" stroke-linejoin="round"/>
      <path d="m83.3,56.57c0-6.43-5.21-11.64-11.64-11.64s-11.64,5.21-11.64,11.64c0,4.05,2.11,7.81,5.56,9.93v6.24c.02.71.61,1.28,1.32,1.27h9.52c.72,0,1.3-.57,1.31-1.29,0,0,0-.01,0-.02v-6.24c3.45-2.1,5.57-5.85,5.58-9.89Z" fill="none" stroke="#263238" stroke-linecap="round" stroke-linejoin="round"/>
      <rect x="65.68" y="73.65" width="12.05" height="1.56" fill="#263238" stroke="#263238" stroke-linecap="round" stroke-linejoin="round"/>
      <polygon points="29.46 322.11 22.96 331.57 122.58 331.57 116.09 322.11 29.46 322.11" fill="#c0bda5" stroke="#263238" stroke-linecap="round" stroke-linejoin="round"/>
      <path d="m116.13,322.11H29.46l7.25-24.9c1.64-5.65,6.82-9.54,12.71-9.55h46.73c5.89-.02,11.09,3.87,12.73,9.53l7.25,24.91Z" fill="#c0bda5" stroke="#263238" stroke-linecap="round" stroke-linejoin="round"/>
      <ellipse cx="71.9" cy="297.05" rx="10.62" ry="9.72" fill="#263238" stroke="#263238" stroke-linecap="round" stroke-linejoin="round"/>
      <ellipse cx="71.9" cy="294.26" rx="10.62" ry="6.9" fill="#c0bda5" stroke="#263238" stroke-linecap="round" stroke-linejoin="round"/>
      <ellipse cx="71.9" cy="292.61" rx="10.62" ry="6.9" fill="#c0bda5" stroke="#263238" stroke-linecap="round" stroke-linejoin="round"/>
      <circle cx="95.16" cy="298.82" r="7.32" transform="translate(-185.66 159.21) rotate(-45.9)" fill="#263238" stroke="#263238" stroke-linecap="round" stroke-linejoin="round" stroke-width="1"/>
      <circle cx="95.16" cy="295.14" r="7.32" fill="#c0bda5" stroke="#263238" stroke-linecap="round" stroke-linejoin="round"/>
      <path d="m53.78,273.57h-4.67c-2.93,0-5.72-1.23-7.67-3.41-2.51-2.81-6.45-6.66-10.93-8.77-2.73-1.26-4.78-3.64-5.64-6.53l-9.51-32.81c-.48-1.71-2.26-2.71-3.98-2.23-.57.16-1.09.48-1.5.92h0c-1.05,1.12-1.17,2.82-.28,4.08l8.22,11.66" fill="none" stroke="#263238" stroke-linecap="round" stroke-linejoin="round" stroke-width="2"/>
      <path d="m19.7,239.19l9.86,1.23-2.87,48.51s-8-1.96-10.06-13.46l8,1.14,1.25-15.21-2.18-.81c-1.39-.5-2.28-1.87-2.19-3.34l.48-7.94c.1-1.76,1.56-3.14,3.33-3.13h1.79l.46-4.26-3.95-.61-1.82,2.13-2.42.15.31-4.39Z" fill="#c0bda5" stroke="#263238" stroke-linecap="round" stroke-linejoin="round"/>
    </g>
  </g>
</svg>